<svg version="1.2" xmlns="http://www.w3.org/2000/svg" viewBox="0 0 770 769" width="770" height="769">
	<title>Radarr (1)-svg</title>
	<defs>
		<clipPath clipPathUnits="userSpaceOnUse" id="cp1">
			<path d="m385 759.27c-207.37 0-375-167.63-375-375 0-207.38 167.63-375 375-375 207.38 0 375 167.62 375 375 0 207.37-167.62 375-375 375z"/>
		</clipPath>
	</defs>
	<style>
		.s0 { fill: #000000 } 
		.s1 { fill: none;stroke: #989898;stroke-linecap: square;stroke-miterlimit:1;stroke-width: 2 } 
		.s2 { fill: #f0f0f0 } 
		.s3 { opacity: .5;fill: #f0f0f0 } 
		.s4 { fill: none;stroke: #f0f0f0;stroke-miterlimit:100;stroke-width: 38 } 
		.s5 { fill: #9c36b5 } 
	</style>
	<g id="radarr-group-logo">
		<path id="radarr-black-circle" class="s0" d="m385 759.3c-207.4 0-375-167.7-375-375 0-207.4 167.6-375 375-375 207.4 0 375 167.6 375 375 0 207.3-167.6 375-375 375z"/>
		<g id="Clip-Path: radarr-honeycomb" clip-path="url(#cp1)">
			<path id="radarr-honeycomb" fill-rule="evenodd" class="s1" d="m714.6-2.9l18.8-10.9 18.8 10.9 18.9-10.9 18.8 10.9 18.8-10.9 18.8 10.9v21.9l18.8 10.9v21.8l-18.8 10.7v21.9l18.8 10.9v21.9l-18.8 10.9v21.8l18.8 11v21.8l-18.8 10.7v21.9l18.8 10.9v21.8l-18.8 11v21.8l18.8 10.9v21.9l-18.8 10.7v21.8l18.8 11v21.8l-18.8 10.9v21.9l18.8 10.9v21.9l-18.8 10.7v21.8l18.8 10.9v21.9l-18.8 10.9v21.9l18.8 10.9v21.8l-18.8 10.7v21.9l18.8 10.9v21.8l-18.8 11v21.8l18.8 10.9v21.9l-18.8 10.7v21.9l18.8 10.9v21.8l-18.8 11-18.8-11-18.8 11-18.8-11-18.9 11-18.8-11-18.8 11-18.8-11-19 11-18.8-11-18.8 11-18.9-11-18.8 11-18.8-11-18.8 11-18.8-11-18.8 11-18.8-11-19 11-18.8-11-18.9 11-18.8-11-18.8 11-18.8-11-18.8 11-18.8-11-18.8 11-18.8-11-18.8 11-18.9-11-18.8 11-18.8-11-19 11-18.8-11-18.8 11-18.8-11-18.8 11-18.9-11-18.8 11-18.8-11-18.8 11-18.8-11-19 11-18.8-11-18.8 11-18.9-11-18.8 11-18.8-11v-21.8l-18.8-10.9v-21.9l18.8-10.7v-21.9l-18.8-10.9v-21.8l18.8-11v-21.8l-18.8-10.9v-21.9l18.8-10.7v-21.8l-18.8-10.9v-21.9l18.8-10.9v-21.9l-18.8-10.9v-21.8l18.8-10.7v-21.9l-18.8-10.9v-21.9l18.8-10.9v-21.8l-18.8-11v-21.8l18.8-10.7v-21.9l-18.8-10.9v-21.8l18.8-11v-21.8l-18.8-10.9v-21.9l18.8-10.7v-21.8l-18.8-11v-21.8l18.8-10.9v-21.9l-18.8-10.9v-21.9l18.8-10.7v-21.8l-18.8-10.9v-21.9l18.8-10.9 18.8 10.9 18.8-10.9 18.9 10.9 18.8-10.9 18.8 10.9 19-10.9 18.8 10.9 18.8-10.9 18.8 10.9 18.8-10.9 18.9 10.9 18.8-10.9 18.8 10.9 18.8-10.9 18.8 10.9 19-10.9 18.8 10.9 18.8-10.9 18.9 10.9 18.8-10.9 18.8 10.9 18.8-10.9 18.8 10.9 18.8-10.9 18.8 10.9 18.8-10.9 18.8 10.9 18.9-10.9 18.8 10.9 19-10.9 18.8 10.9 18.8-10.9 18.8 10.9 18.8-10.9 18.8 10.9m37.7 0l-18.9-10.9-18.8 10.9v21.9l18.8 10.9 18.9-10.9v-21.9l18.8-10.9 18.8 10.9m-37.6 21.9l18.8 10.9 18.8-10.9m-37.6 43.4v21.9l18.8 10.9 18.8-10.9v-21.9l-18.8-10.7-18.8 10.7-18.9-10.7-18.8 10.7m75.3 21.9l19 10.9 18.8-10.9v-21.9l-18.8-10.7-19 10.7m19-32.5v21.8m-37.8-21.8v21.8m18.8-32.7l19 10.9 18.8-10.9v-21.9l-18.8-10.9-19 10.9zm-112.9-21.8v21.8l18.8 10.9 18.8-10.9m-37.6 43.5v21.8l18.8 11 18.8-11v-21.8l-18.8-10.7-18.8 10.7-18.8-10.7-18.8 10.7m94.1-32.6v21.9m-37.7-21.9v21.9m18.9 76.2v21.9l18.8 10.9 18.8-10.9v-21.9l-18.8-10.9-18.8 10.9-18.9-10.9-18.8 10.9v21.9l18.8 10.9 18.9-10.9m37.6-65.6l-18.8 11v21.8m-18.8-32.8l18.8 11m-37.7 0v21.8m0 43.7v21.9l18.9 10.7 18.8-10.7v-21.9m37.6-65.5v21.8l18.8 10.9 19-10.9v-21.8m-37.8 21.8l-18.8 10.9m-18.8 54.7l18.8 10.7 18.8-10.7v-21.9l-18.8-10.9m37.6-21.9v21.9l19 10.9 18.8-10.9v-21.9l-18.8-10.9m0 43.7v21.9l18.8 10.7 18.8-10.7v-21.9l-18.8-10.9m-56.6 10.9l18.8-10.9m-150.5-152.7v21.8l18.8 10.9 18.8-10.9m-113.1-21.8v21.8l18.9 10.9 18.8-10.9v-21.8m0 21.8l19 10.9 18.8-10.9m-37.8 43.5v21.8l19 11 18.8-11v-21.8l-18.8-10.7-19 10.7-18.8-10.7-18.9 10.7v21.8l18.9 11 18.8-11m-18.8-54.4v21.9m75.4-21.9v21.9m-37.6-21.9v21.9m-94.3-54.6v21.8l18.8 10.9 18.8-10.9m-75.2-21.8v21.8l18.8 10.9 18.8-10.9m-18.8 32.8l-18.8 10.7v21.8l18.8 11 18.8-11v-21.8zm56.5 10.7l-18.9-10.7-18.8 10.7m-18.8-32.5v21.8m37.6-21.8v21.8m18.9 32.6l-18.9 10.9v21.8l18.9 11 18.8-11v-21.8m-75.3 0v21.8l18.8 11 18.8-11m-37.6 65.6l18.8 10.7 18.8-10.7v-21.9l-18.8-10.9-18.8 10.9v21.9l-18.8 10.7v21.8l18.8 11 18.8-11v-21.8m18.8-32.6l18.9-10.9v-21.8m-37.7-43.7l18.8 10.9m-18.8 54.6v-21.8m94.3-32.8v21.8l18.8 11 18.8-11v-21.8l-18.8-10.9m-75.4 65.5l18.8 10.9 18.8-10.9v-21.8l-18.8-11m37.8 0l-19 11m19 54.6l18.8 10.7 18.8-10.7v-21.9l-18.8-10.9-18.8 10.9v21.9l-19 10.7v21.8l-18.8 11v21.8l18.8 10.9 19-10.9v-21.8l-19-11m-56.5-32.5l18.9 10.7 18.8-10.7v-21.9m18.8-10.9l19 10.9m18.8-10.9v-21.8m0 65.3v21.8l18.8 11 18.8-11v-21.8l-18.8-10.7m-56.6 76.2v21.9l19 10.9 18.8-10.9v-21.9l-18.8-10.9m18.8 32.8l18.8 10.9 18.8-10.9v-21.9l-18.8-10.9-18.8 10.9m-18.8-32.7l18.8-11m18.8 11v21.8m-75.4-21.8l-18.8-11-18.9 11v21.8l18.9 10.9 18.8-10.9m-18.8-32.8v-21.8m-56.5 54.6l-18.8 10.9v21.9l18.8 10.9 18.8-10.9v-21.9zm18.9 32.8l18.8 10.9 18.8-10.9v-21.8m-56.5-32.8v21.8m37.7 0l-18.8 11m0-43.7l18.8 10.9m0 87.4l-18.8 10.7v21.8l18.8 11 18.8-11v-21.8zm0-21.9v21.9m-37.6-21.9v21.9l18.8 10.7m0 21.8l-18.8 11v21.8l18.8 11 18.8-11v-21.8m94.2-32.8v21.8l18.8 11 18.9-11v-21.8l-18.9-10.7zm18.9-32.6v21.9m-56.7-32.8l-18.8 10.9v21.9l18.8 10.7 19-10.7v-21.9m-56.6 54.4l18.8 11 18.8-11v-21.8m37.8 21.8l-18.8 11v21.8l18.8 10.9 18.9-10.9v-21.8m-113.1 21.8l18.8 10.9 18.8-10.9v-21.8m18.8-11l19 11m0-43.5l18.8 10.7m-75.4-43.5l18.8 10.9m0 21.9l-18.8 10.7m245-141.6l-19.1 10.7v21.9l19.1 10.9 18.8-10.9v-21.9m-75.5 0v21.9l18.8 10.9 18.8-10.9m-37.6 65.5l18.8 10.9 18.8-10.9v-21.8l-18.8-11-18.8 11v21.8l-18.8 10.9v21.9m56.4-32.8l19.1 10.9 18.8-10.9v-21.8l-18.8-11-19.1 11m19.1-32.8v21.8m-37.9-21.8v21.8m-56.4-54.6v21.9l18.8 10.9 18.8-10.9m-75.2 0l18.8 10.9 18.8-10.9m-37.6 65.5l18.8 10.9 18.8-10.9v-21.8l-18.8-11-18.8 11m75.2 0l-18.8-11-18.8 11m18.8-32.8v21.8m-37.6-21.8v21.8m18.8 76.3v21.8l18.8 11 18.8-11v-21.8l-18.8-10.7-18.8 10.7-18.8-10.7-18.8 10.7m18.8-32.6v21.9m18.8 32.5l-18.8 11v21.8l18.8 10.9 18.8-10.9v-21.8m-56.4-11l18.8 11m113-65.4v21.9l18.9 10.7 18.8-10.7v-21.9l-18.8-10.9m-18.9 32.8l-19 10.7v21.8l19 11 18.9-11v-21.8m-56.7-32.6v21.9l18.8 10.7m-18.8-10.7l-18.8 10.7m37.6 21.8l-18.8 11v21.8l18.8 10.9 19-10.9v-21.8m-56.6-11l18.8 11m-56.4-76.3l18.8 10.9m-56.4-163.6l-18.8-10.9m0 43.7l18.8-11m-18.8-54.6l18.8-10.9m94 98.3l18.8 10.7m-94-10.7l-18.8 10.7m-75.5 0l-18.8-10.7m339-152.7l-18.8-10.9-18.8 10.9v21.8l18.8 10.8 18.8-10.8v-21.8l18.8-10.9m0 43.5l-18.8-10.8m-18.8-54.6v21.9m-75.2 0l18.8 10.9 18.8-10.9v-21.9m-37.6 87.2l18.8 10.9 18.8-10.9v-21.8l-18.8-10.8-18.8 10.8m37.6 0l18.8-10.8m-37.6-21.8v21.8m18.8-32.7l18.8 10.9m0 65.3v21.9l18.8 10.9 18.8-10.9v-21.9l-18.8-10.9-18.8 10.9-18.8-10.9m-18.8 76.5l18.8-11v-21.8l-18.8-10.9-18.8 10.9m18.8-32.8v21.9m37.6 43.7v21.8l18.8 10.7 18.8-10.7v-21.8l-18.8-11-18.8 11-18.8-11m37.6-21.8v21.8m-37.6-21.8l18.8-10.9m56.4 10.9l-18.8-10.9m0-21.9l18.8-10.9m-18.8 76.5l18.8-11m-37.6-87.3v21.8m0 109v21.9l18.8 10.9 18.8-10.9m-37.6 0l-18.8 10.9v21.8l18.8 11 18.8-11v-21.8m18.8 32.8l-18.8-11m-94-32.7l18.8 10.9 18.8-10.9v-21.9l-18.8-10.7m0 109l18.8-10.9v-21.8l-18.8-11-18.8 11m75.2 0v21.8l18.8 10.9 18.8-10.9m-75.2-21.8l18.8-11m-37.6-21.8v21.8m18.8-32.7l18.8 10.9m-37.6 87.4l18.8 10.7 18.8-10.7v-21.9l-18.8-10.9m0 43.5v21.8l18.8 11 18.8-11v-21.8l-18.8-10.7m-56.4 32.5l18.8 11 18.8-11m-18.8 11v21.8l18.8 10.9 18.8-10.9v-21.8m18.8-32.8l18.8-10.7v-21.9m18.8 32.6l-18.8-10.7m-18.8 32.5l18.8 11 18.8-11m-56.4 32.8l18.8 10.9 18.8-10.9v-21.8m-37.6-65.4l18.8-10.9m37.6-87.4l-18.8-10.7m-56.4 10.7l18.8-10.7m37.6 239.9l-18.8-10.9-18.8 10.9v21.8l18.8 10.8 18.8-10.8v-21.8l18.8-10.9m0 43.5l-18.8-10.8m-18.8-54.6v21.9m-37.6-21.9v21.9l18.8 10.9m-56.5-10.9l-18.8 10.9v21.8l18.8 10.8 18.9-10.8v-21.8l-18.9-10.9v-21.9l-18.8-10.9m56.5 32.8l-18.8 10.9m37.6 21.8l-18.8 10.8v21.8l18.8 10.9 18.8-10.9v-21.8m-94.1-10.8l-19 10.8v21.8l19 10.9 18.8-10.9v-21.8m18.9-10.8l18.8 10.8m18.8 54.6l-18.8 10.9v21.8l18.8 11 18.8-11v-21.8zm0-21.8v21.8m-18.8-32.8l-18.8 11v21.8l18.8 10.9m-18.8-10.9l-18.8 10.9v21.9l18.8 10.9 18.8-10.9m-18.8 10.9v21.8l18.8 10.8 18.8-10.8v-21.8m18.8-32.8l18.8-10.9v-21.8l-18.8-11m37.6 43.7l-18.8-10.9m-37.6 65.5l18.8 10.8 18.8-10.8v-21.8l-18.8-10.9m18.8 10.9l18.8-10.9m-112.8-65.6l18.8 11m75.2 0l18.8-11m-37.6 109v21.9l18.8 10.9 18.8-10.9m0 43.7l-18.8-10.9-18.8 10.9v21.8l18.8 11 18.8-11m-18.8-32.7v-21.9m-18.8-10.9l-18.8 10.9v21.9l18.8 10.9m-56.4-76.3l-18.8 10.7v21.9l18.8 10.9 18.8-10.9v-21.9m-18.8 98.4l18.8-11v-21.8l-18.8-10.9-18.8 10.9v21.8l18.8 11v21.8l18.8 10.7 18.8-10.7m-18.8-32.8l18.8 11 18.8-11m-18.8-32.7l-18.8 10.9m0-43.7l18.8 10.9m-37.6 0v21.9m37.6 43.7v21.8l18.8 10.7 18.8-10.7v-21.8m-94-11l-18.9 11v21.8l18.9 10.7 18.8-10.7m-18.8 10.7v21.9l18.8 10.9 18.8-10.9v-21.9m-18.8 32.8v21.8m75.2 0v-21.8l-18.8-10.9-18.8 10.9v21.8m18.8-54.6v21.9m-18.8 10.9l-18.8-10.9m75.2-21.9l-18.8-10.7m0 43.5l18.8-10.9m0-152.8l-18.8-10.7m-131.9-185.4v21.8l19 10.9m-37.8-43.7l-18.8 11v21.8l18.8 10.9 18.8-10.9m0 43.5l-18.8-10.7-18.8 10.7v21.8l18.8 11 18.8-11m-18.8-32.5v-21.9m-56.4-32.7v21.8l18.8 10.9 18.8-10.9m-56.4-32.8l-18.8 11v21.8l18.8 10.9 18.8-10.9m-37.6 65.3l18.8 11 18.8-11v-21.8l-18.8-10.7-18.8 10.7v21.8l-18.8 11v21.8m56.4-54.6l18.8-10.7v-21.9m-37.6 0v21.9m18.8 76.2v21.9l18.8 10.9 18.8-10.9v-21.9l-18.8-10.9zm37.6-43.7l-18.8 10.9v21.9m-37.6-21.9v21.9l18.8 10.9m-18.8-10.9l-18.8 10.9v21.8l18.8 11 18.8-11m-18.8 11v21.8l18.8 10.7 18.8-10.7v-21.8m75.4-65.6v21.9l18.9 10.9m-18.9-10.9l-19 10.9v21.8l19 11 18.9-11m-75.5-21.8l18.8-10.9v-21.9m18.8 54.6l-18.8 11v21.8l18.8 10.7 19-10.7v-21.8m-56.6-11l18.8 11m18.8-32.8l-18.8-10.9m-56.4-32.8l18.8 10.9m0-43.5l18.8 10.8m-131.7-76.3l-19 10.9v21.9l19 10.9 18.8-10.9v-21.9m-18.8 32.8v21.8l18.8 10.8 18.8-10.8v-21.8l-18.8-10.9m-75.4-21.9v21.9l18.8 10.9 18.8-10.9m19 32.7l-19 10.8v21.8l19 10.9 18.8-10.9v-21.8m-37.8 0l-18.8-10.8-18.8 10.8v21.8l18.8 10.9 18.8-10.9m-18.8-32.6v-21.8m-18.8-10.9l-18.8 10.9v21.8l18.8 10.8m-56.4-76.3l-18.9 10.9v21.9l18.9 10.9 18.8-10.9v-21.9m0 65.4l-18.8-10.8-18.9 10.8v21.8l18.9 10.9 18.8-10.9v-21.8l18.8-10.8m0-21.8l-18.8-10.9m-18.8 10.9v21.8m37.6 65.4l-18.8 10.9v21.8l18.8 11 18.8-11v-21.8zm18.8-32.8l-18.8 11v21.8m-37.6-21.8v21.8l18.8 10.9m0 21.9l-18.8 10.9v21.8l18.8 10.8 18.8-10.8v-21.8m131.9-32.8l-18.8-10.9-18.9 10.9v21.9l18.9 10.9 18.8-10.9m-94.3-54.6v21.8l18.8 10.9 19-10.9v-21.8m-37.8 87.3l18.8 10.8 19-10.8v-21.8l-19-10.9-18.8 10.9v21.8l-18.8 10.8v21.8l18.8 10.9 18.8-10.9m19-32.6l18.8 10.8 18.9-10.8v-21.8m-37.7 0l18.8-10.9m-37.8-21.9v21.9m37.8-21.9l-18.8-10.9m18.8-32.8l18.9 11m-75.5 21.8l-18.8 10.9m0 21.9l18.8 10.9m-56.4-76.5l18.8 11m94.2 119.9l-18.8 10.9v21.9l18.8 10.9 18.9-10.9v-21.9l-18.9-10.9v-21.8m-37.8 0v21.8l19 10.9m0 21.9l-19 10.9v21.8l19 11 18.8-11v-21.8m-37.8 0l-18.8-10.9-18.8 10.9v21.8l18.8 11 18.8-11m19 11v21.8l18.8 10.7 18.9-10.7v-21.8l-18.9-11m-56.6-32.7v-21.9m-56.4-32.7v21.8l18.8 10.9 18.8-10.9m-56.4-32.6l-18.9 10.8v21.8l18.9 10.9 18.8-10.9m-18.8 32.8l-18.9 10.9v21.8l18.9 11 18.8-11v-21.8zm56.4 32.8l-18.8 10.9v21.8l18.8 10.8 18.8-10.8v-21.8m-37.6-65.6v21.9l18.8 10.9m-56.4-32.8v21.9m18.8 10.9l18.8-10.9m0 43.7l-18.8-10.9m-18.8 10.9v21.8l18.8 10.8 18.8-10.8m0 65.4v-21.9l-18.8-10.9-18.8 10.9v21.9m75.2 0v-21.9l-18.8-10.9-18.8 10.9m-18.8-10.9v-21.8m37.6 21.8v-21.8m18.8 32.7l18.8-10.9v-21.8l-18.8-10.8m37.8 0l-19 10.8m19 54.6v-21.9l-19-10.9m94.3 32.8v-21.9l-18.8-10.9-18.8 10.9v21.9m-18.8-54.6v21.8l18.8 10.9m-37.7 0l18.9-10.9m150.5-152.7v21.8l19 10.9 18.8-10.9m-56.7-32.5l-18.8 10.7v21.8l18.8 10.9 18.9-10.9m-18.9 76.5l18.9-10.9v-21.9l-18.9-10.9-18.8 10.9v21.9l18.8 10.9v21.8l18.9 10.8 19-10.8m18.8-54.6l-18.8-10.9-19 10.9m0 21.9l19 10.9m0-43.7v-21.9m-37.9 0v21.9m-56.4-54.6v21.8l18.8 10.9 18.8-10.9m-56.4-32.5l-18.8 10.7v21.8l18.8 10.9 18.8-10.9m-37.6 43.7v21.9l18.8 10.9 18.8-10.9v-21.9l-18.8-10.9-18.8 10.9-18.8-10.9m94 10.9l-18.8-10.9-18.8 10.9m0 21.9l18.8 10.9 18.8-10.9m-18.8-54.7v21.9m-37.6-21.9v21.9m0 43.7v21.8l18.8 10.8 18.8-10.8v-21.8m-37.6 21.8l-18.8 10.8v21.8m56.4 32.8v-21.9l-18.8-10.9-18.8 10.9m18.8-10.9v-21.8m18.8-10.8l18.8 10.8 18.8-10.8m-18.8 10.8v21.8l18.8 10.9 18.9-10.9v-21.8m-18.9 32.7v21.9m37.9 0v-21.9l-19-10.9m-56.5 10.9l18.8-10.9m-75.2-283.6l-18.8-10.7m0-21.9l18.8-10.9m-18.8 272.7l18.8-10.9m-18.8-54.7l18.8-10.9m0-21.8l-18.8-10.7m94 10.7l-18.8-10.7m-169.5 10.7l-18.8-10.7m131.9 141.6l-18.8-10.8m150.7 43.5l18.8-10.9m0-152.7l-18.8-10.7m37.6-196.5l-18.8 11m-150.7 0l-18.8-11m94 11l-18.8-11m207.1 11l-18.8-11m-320.2 11l-18.8-11m-470.7-381.7v21.9l18.8 10.9 18.8-10.9v-21.9m0 21.9l19.1 10.9 18.8-10.9v-21.9m-113.1 0v21.9l18.8 10.9 18.8-10.9m-18.8 32.8l-18.8 10.7v21.8l18.8 11 18.8-11v-21.8zm18.8 32.6l18.8 10.9 18.9-10.9v-21.9l-18.9-10.7-18.8 10.7m37.7 21.9l19 10.9 18.8-10.9v-21.9l-18.8-10.7-19 10.7m-56.5-32.6v21.9m37.6-21.9v21.9m37.9-21.9v21.9m-113.1-21.9l18.8-10.9m0 43.5l-18.8-10.7m0 109l18.8-10.9v-21.8l-18.8-11m0-21.8l18.8-10.9m56.4 32.7l-18.8 11v21.8l18.8 10.9 18.9-10.9v-21.8l-18.9-11v-21.8m18.9 54.6l19 10.9 18.8-10.9v-21.8l-18.8-11-19 11m19-32.8v21.8m-75.5-21.8v21.8l18.8 11m0 21.8l-18.8 10.9v21.9l18.8 10.7 18.8-10.7v-21.9m37.9 0v21.9l18.8 10.7 18.8-10.7v-21.9l-18.8-10.9m-94.3-32.8l-18.8 11m0 21.8l18.8 10.9m56.5 54.4l-18.9 11v21.8l18.9 10.9 19-10.9v-21.8zm19-32.6l-19 10.7v21.9m-56.5-32.6l-18.8 10.7v21.9l18.8 10.9 18.8-10.9v-21.9m0 65.5l-18.8-10.9-18.8 10.9v21.9l18.8 10.9 18.8-10.9v-21.9l18.9-10.9m18.8 10.9v21.9l19 10.9 18.8-10.9v-21.9l-18.8-10.9m-75.5-21.8v21.8m37.7-21.8l-18.9-10.9m-56.4 10.9l18.8-10.9m0 43.6l-18.8-10.9m0 109l18.8-10.9v-21.8l-18.8-10.7m94.1 10.7v21.8l19 10.9 18.8-10.9v-21.8l-18.8-10.7zm19-32.6v21.8m-19-32.7l-18.8 10.9v21.8l18.8 10.8m-56.5-32.6v21.8l18.8 10.8 18.9-10.8m-37.7 43.5v21.9l18.8 10.9 18.9-10.9v-21.9l-18.9-10.9zm75.5 0v21.9l18.8 10.9 18.8-10.9v-21.9l-18.8-10.9m-56.6 10.9l18.8-10.9m-37.6-21.9v21.9m0-65.3l18.8 10.9m-37.7 21.8l-18.8 10.7m0 21.9l18.8 10.9m-37.6-65.3l18.8-10.9m75.3-87.4l-18.8-10.7m-56.5 10.7l-18.8-10.7m395.5-185.5v21.8l18.8 10.9 18.8-10.9m-75.2-21.8v21.8l18.8 10.9 18.8-10.9m-18.8 32.8l-18.8 10.7v21.8l18.8 11 18.8-11v-21.8l-18.8-10.7v-21.9m56.4 32.6l-18.8-10.7-18.8 10.7m18.8-10.7v-21.9m-94.1-32.7v21.8l18.8 10.9 18.9-10.9m-75.5-21.8v21.8l19 10.9 18.8-10.9m-37.8 43.5v21.8l19 11 18.8-11v-21.8l-18.8-10.7-19 10.7-18.8-10.7-18.8 10.7m113.1 0l-18.8-10.7-18.9 10.7m-18.8-32.6v21.9m37.7-21.9v21.9m18.8 32.5l-18.8 11v21.8l18.8 10.9 18.8-10.9v-21.8m-56.5-11l18.9 11m0 21.8l-18.9 10.9v21.9l18.9 10.9 18.8-10.9v-21.9m-75.5-43.7l-18.8 11v21.8l18.8 10.9 19-10.9v-21.8m18.8 54.6l-18.8 10.9v21.8l18.8 10.8 18.9-10.8v-21.8m-56.7-32.8v21.9l19 10.9m18.8-32.8l-18.8-10.9m94.1-32.8l18.8 11 18.8-11m-18.8 32.8l-18.8 10.9v21.9l18.8 10.9 18.8-10.9v-21.9l-18.8-10.9v-21.8m-37.6 21.8l18.8 10.9m0 21.9l-18.8 10.9v21.8l18.8 10.8 18.8-10.8v-21.8m-37.6 0l-18.8-10.9m-113.1-152.7v21.8l18.8 10.9 18.8-10.9m-75.2-21.8v21.8l18.8 10.9 18.8-10.9m-37.6 43.5v21.8l18.8 11 18.8-11v-21.8l-18.8-10.7-18.8 10.7-18.9-10.7-18.8 10.7m94.1-32.6v21.9m-37.6-21.9v21.9m-56.5-54.6v21.8l18.8 10.9 18.9-10.9m-75.3 0l18.8 10.9 18.8-10.9m-37.6 65.3l18.8 11 18.8-11v-21.8l-18.8-10.7-18.8 10.7m56.4-32.6v21.9m-37.6-21.9v21.9m18.8 32.5l18.8 11 18.9-11m-18.9 11v21.8l18.9 10.9 18.8-10.9v-21.8m-37.7 21.8l-18.8 10.9v21.9l18.8 10.9 18.9-10.9v-21.9m-75.3 0l18.8-10.9v-21.8m37.6 65.5v21.8l18.9 10.8 18.8-10.8v-21.8l-18.8-10.9m-37.7-21.9l-18.8-10.9m0 43.7l18.8-10.9m75.3-65.6l18.8 11m0 21.8l-18.8 10.9v21.9l18.8 10.9 18.8-10.9m-56.4 32.7l18.8 10.8 18.8-10.8v-21.8m-37.6-43.7l18.8 10.9m-18.8 32.8l18.8-10.9m0 43.5v21.8l18.8 10.9 18.8-10.9v-21.8l-18.8-10.8m-56.4 10.8v21.8l18.8 10.9 18.8-10.9m-37.6 65.5l18.8 11 18.8-11v-21.8l-18.8-10.9-18.8 10.9v21.8l-18.9 11v21.8m56.5-32.8l18.8 11 18.8-11v-21.8l-18.8-10.9-18.8 10.9m18.8-32.8v21.9m-37.6-21.9v21.9m-37.7-65.4l-18.8 10.8v21.8l18.8 10.9 18.9-10.9m-75.3-21.8v21.8l18.8 10.9 18.8-10.9m-37.6 65.5l18.8 11 18.8-11v-21.8l-18.8-10.9-18.8 10.9m75.3 0l-18.9-10.9-18.8 10.9m-18.8-32.8v21.9m37.6-21.9v21.9m-18.8 76.2v21.9l18.8 10.9 18.9-10.9v-21.9l-18.9-10.7-18.8 10.7-18.8-10.7-18.8 10.7m18.8-32.5v21.8m37.6 43.5v21.8l18.9 11 18.8-11v-21.8l-18.8-10.9m-56.5 10.9l18.8-10.9m94.1-54.4v21.8l18.8 10.7 19-10.7v-21.8l-19-11m-18.8 32.8l-18.8 10.7v21.9l18.8 10.9 18.8-10.9v-21.9m-37.6 0l-18.8-10.7-18.8 10.7m18.8-32.5v21.8m37.6 43.5v21.8l18.8 11 19-11v-21.8l-19-10.9m-56.4 10.9l18.8-10.9m-75.3-65.4l18.8 11m207.2-98.3v21.8l18.8 10.9 18.8-10.9m-37.6 0l-18.8 10.9v21.9l18.8 10.9 18.8-10.9v-21.9m-37.6 21.9l-18.8 10.9v21.8l18.8 11 18.8-11v-21.8m37.6 0l-18.8-10.9m-94.1-54.6v21.8l18.9 10.9 18.8-10.9v-21.8l-18.8-10.8m-56.7 32.6l19 10.9 18.8-10.9m-18.8 76.5l18.8-11v-21.8l-18.8-10.9-19 10.9m75.5 0l-18.8-10.9-18.9 10.9m-18.8-32.8v21.9m37.7-21.9v21.9m18.8 32.7l-18.8 11v21.8l18.8 10.7 18.8-10.7v-21.8m-37.6 21.8l-18.9 10.7v21.9l18.9 10.9 18.8-10.9v-21.9m-18.8 32.8v21.8l18.8 11 18.8-11v-21.8l-18.8-10.9m-37.7-21.9l-18.8-10.7m0 43.5l18.8-10.9m94.1-32.6l-18.8 10.7v21.9l18.8 10.9 18.8-10.9v-21.9l-18.8-10.7v-21.8l-18.8-11m0 43.5l-18.8-10.7m0 43.5l18.8-10.9m-18.8 32.7l18.8 11 18.8-11v-21.8m0-65.3l18.8-11m-112.9 0l18.9 11m37.6-65.6l-18.8-10.9m-188.4-21.8l-18.8-10.8m282.4 10.8l-18.8-10.8m-112.9 0l-19 10.8m94.3-10.8l-18.8 10.8m-244.8 32.7l18.8-10.9m263.6 174.6v21.8l18.8 10.9 18.8-10.9m-37.6 0l-18.8 10.9v21.9l18.8 10.7 18.8-10.7v-21.9m-37.6 21.9l-18.8 10.7v21.9l18.8 10.9 18.8-10.9v-21.9m37.6 0l-18.8-10.7m-56.4-54.6v21.8l18.8 10.9m-18.8-10.9l-18.8 10.9v21.9l18.8 10.7m-18.8-32.6l-18.9-10.9-18.8 10.9v21.9l18.8 10.7 18.9-10.7m-18.9-32.8v-21.8l-18.8-11m-19 11v21.8l19 10.9m0 21.9l-19 10.7v21.9l19 10.9 18.8-10.9v-21.9m0 65.5v21.9l18.9 10.9 18.8-10.9v-21.9l-18.8-10.9-18.9 10.9-18.8-10.9-19 10.9v21.9l19 10.9 18.8-10.9m37.7-65.5l-18.8 10.9v21.8m-37.7-21.8v21.8m-19 32.8l-18.8 10.9v21.9l18.8 10.7 19-10.7v-21.9m37.7 0v21.9l18.8 10.7 18.8-10.7v-21.9l-18.8-10.9m56.4-32.8l-18.8 10.9v21.9l18.8 10.9 18.8-10.9v-21.9l-18.8-10.9v-21.8l-18.8-10.9m-18.8 10.9v21.8l18.8 10.9m-18.8 32.8l18.8-10.9m-18.8 32.8l18.8 10.7 18.8-10.7v-21.9m-94.1-76.4l18.9 10.9m37.6 21.8l-18.8 10.9m56.4-32.7l18.8-10.9m-169.5-98.2l-18.8 11v21.8l18.8 10.9 18.8-10.9m-75.2-21.8v21.8l18.8 10.9 18.8-10.9m-37.6 0l-18.9 10.9v21.9l18.9 10.7 18.8-10.7v-21.9m-37.7 21.9l-18.8 10.7v21.9l18.8 10.9 18.9-10.9v-21.9m75.2 0l-18.8-10.7-18.8 10.7v21.9l18.8 10.9 18.8-10.9m-18.8-54.5v21.9m-37.6 0l18.8 10.7m-56.5-76.3l-18.8 11v21.8l18.8 10.9m-56.4-10.9l-18.8 10.9v21.9l18.8 10.7 18.8-10.7v-21.9l-18.8-10.9v-21.8m0 65.3v21.9l18.8 10.9 18.8-10.9m0-21.9l-18.8-10.7m0-21.9l18.8-10.9m0 109v21.9l18.8 10.9 18.9-10.9v-21.9l-18.9-10.9zm18.9-32.7v21.8m-37.7-21.8v21.8l18.8 10.9m-18.8-10.9l-18.8 10.9v21.9l18.8 10.9 18.8-10.9m-37.6 0l-18.8 10.9v21.8l18.8 10.8 18.8-10.8v-21.8m37.7 0v21.8l18.8 10.8 18.8-10.8v-21.8l-18.8-10.9m56.4-54.6v21.8l18.8 10.9m-18.8-10.9l-18.8 10.9v21.9l18.8 10.9m-18.8-32.8l-18.8-10.9-18.8 10.9m37.6-43.7l-18.8 11v21.8m0 43.7l18.8-10.9m-37.6-65.6l18.8 11m-18.8 98.1v21.8l18.8 10.9 18.8-10.9v-21.8l-18.8-10.8m18.8 32.6l18.8 10.9 18.8-10.9v-21.8m-75.2 87.3l18.8 11 18.8-11v-21.8l-18.8-10.9-18.8 10.9zm37.6 0l18.8 10.9 18.8-10.9v-21.9l-18.8-10.9-18.8 10.9m18.8-32.7v21.8m-37.6-21.8v21.8m-94.1-54.6v21.9l18.8 10.9 18.8-10.9v-21.9l-18.8-10.7m18.8 32.6l18.9 10.9 18.8-10.9m-75.3 0l-18.8 10.9v21.8l18.8 10.9 18.8-10.9v-21.8m-37.6 21.8l-19 10.9v21.9l19 10.9 18.8-10.9v-21.9m-18.8 32.8v21.9l18.8 10.7 18.8-10.7v-21.9l-18.8-10.9m75.3-21.9l-18.8-10.9-18.9 10.9v21.9l18.9 10.9 18.8-10.9m-18.8-54.6v21.8m-37.7 43.7l18.8-10.9m0-21.9l-18.8-10.9m18.8 76.3v21.8l18.9 11 18.8-11v-21.8l-18.8-10.7-18.9 10.7-18.8-10.7m-18.8 10.7v21.8l18.8 11 18.8-11m-18.8 11v21.8m37.7-21.8v21.8m37.6-87.2v21.9l18.8 10.7 18.8-10.7v-21.9m-56.4 32.6l18.8-10.7m-18.8 32.5l18.8 11 18.8-11v-21.8m-18.8 32.8v21.8m37.6 0v-21.8l-18.8-11m-56.4-54.4v21.9m207.1-120.2v21.9l18.8 10.9 18.8-10.9m-75.2-21.9v21.9l18.8 10.9 18.8-10.9m-18.8 32.7l-18.8 10.9v21.9l18.8 10.9 18.8-10.9v-21.9l-18.8-10.9v-21.8m56.4 32.7l-18.8-10.9-18.8 10.9m0 21.9l18.8 10.9 18.8-10.9m-18.8-32.8v-21.8m-75.2-43.5l-18.8 10.7v21.9l18.8 10.9 18.8-10.9m-75.5 0l19 10.9 18.9-10.9m-37.9 65.5l19 10.9 18.9-10.9v-21.9l-18.9-10.9-19 10.9m75.5 21.9l-18.8 10.9v21.9l18.8 10.7 18.8-10.7v-21.9m-18.8-32.8l-18.8-10.9-18.8 10.9m18.8 32.8l-18.8-10.9m-18.9-32.8v-21.8m37.7 0v21.8m-37.7 43.7v21.9l18.9 10.7 18.8-10.7m-75.5 0l18.8 10.7 19-10.7m-19 10.7v21.8l19 11 18.9-11v-21.8m-18.9 32.8v21.8m75.3 0v-21.8l-18.8-11-18.8 11v21.8m0-21.8l-18.8-11m37.6-21.8v21.8m56.4-32.5l-18.8 10.7v21.8l18.8 11 18.8-11v-21.8l-18.8-10.7v-21.9m-37.6 21.9l18.8 10.7m0 21.8l-18.8 11m37.6 21.8v-21.8m-150.7 0l18.8-11m-94-163.4l-18.9 10.7m94.1-10.7l-18.8 10.7m75.5 0l-18.9-10.7m131.7 10.7l-18.8-10.7m-357.8-185.5v21.9l18.8 10.9 18.8-10.9v-21.9l-18.8-10.9m18.8 32.8l19 10.9m-75.4-43.7l-18.8 10.9v21.9l18.8 10.9 18.8-10.9m0 43.4l-18.8-10.7-18.8 10.7v21.9l18.8 10.9 18.8-10.9zm0 21.8l18.8 11 18.8-11v-21.8l-18.8-10.7-18.8 10.7m56.6-10.7l-19 10.7m-56.4-32.6v21.9m37.6 0v-21.9m-75.3 0l18.9-10.9m0 43.5l-18.9-10.7m0 109l18.9-10.9v-21.9l-18.9-10.9m75.3-21.8v21.8l18.8 10.9 19-10.9v-21.8l-19-11m-56.4 11v21.8l18.8 10.9 18.8-10.9m-37.6 65.5l18.8 10.8 18.8-10.8v-21.8l-18.8-10.9-18.8 10.9v21.8l-18.8 10.8m56.4-32.6l18.8-10.9v-21.9m0 21.9l19 10.9m-56.6-32.8v21.9m-56.5-54.6l18.9-11m18.8 32.8l-18.8 10.9m0 21.9l18.8 10.9m18.8 32.6v21.8l18.8 10.9 18.8-10.9v-21.8l-18.8-10.8m18.8 32.6l19 10.9m-56.6-10.9l-18.8 10.9v21.9l18.8 10.9 18.8-10.9v-21.9m-37.6 21.9l-18.8 10.9v21.8l18.8 11 18.8-11v-21.8m0 21.8l18.8 11 18.8-11m0-21.8l-18.8-10.9m-75.3-21.9l18.9-10.9v-21.8l-18.9-10.8m0 109.1l18.9-11m0-21.8l-18.9-10.9m0 109l18.9-10.9v-21.9l-18.9-10.7m113.1 0l-19 10.7v21.9l19 10.9 18.8-10.9m-37.8-21.9l-18.8-10.7-18.8 10.7v21.9l18.8 10.9 18.8-10.9m-56.4-54.4v21.8l18.8 10.7m0 21.9l-18.8 10.9v21.9m75.4 0v-21.9m-37.8 21.9v-21.9m0-43.5v-21.8m-56.4-76.5l18.8 10.9m0 87.4l-18.8 10.7m0 21.9l18.8 10.9m75.4-174.4l-19 10.8m37.8-65.4l-18.8-10.9m0-21.8l18.8-11m37.7-87.1l-18.8-11m-131.9 11l-18.9-11m113.1 0l-19 11m245-11l-18.8 11m-94.3-11l18.8 11m188.3 0l-18.8-11m18.8-228.9l18.8 10.9m0-43.7l-18.8 10.9m0 414.5l18.8 10.9m0-43.7l-18.8 10.9m18.8 185.5l-18.8 10.7m0 21.9l18.8 10.9m-18.8-403.6l18.8 11m0-43.5l-18.8 10.7"/>
		</g>
		<g id="radarr-group-details">
			<g id="radarr-group-shapes-l-r">
				<path id="radarr-shape-right" fill-rule="evenodd" class="s2" d="m159.7 609.6c57.6 57.6 137.3 93.3 225.3 93.3 88 0 167.7-35.7 225.3-93.3l-225.3-225.3z"/>
				<path id="radarr-shape-left" fill-rule="evenodd" class="s2" d="m610.3 158.9c-57.6-57.6-137.3-93.3-225.3-93.3-88 0-167.6 35.7-225.3 93.3l225.3 225.4z"/>
				<path id="Vorm 1" class="s3" d="m385 655c-149.9 0-271-121.1-271-271 0-149.9 121.1-271 271-271 149.9 0 271 121.1 271 271 0 149.9-121.1 271-271 271z"/>
				<path id="Vorm 2" class="s4" d="m385.5 709c-179.4 0-324.5-145.1-324.5-324.5 0-179.4 145.1-324.5 324.5-324.5 179.4 0 324.5 145.1 324.5 324.5 0 179.4-145.1 324.5-324.5 324.5z"/>
			</g>
			<path id="radarr-yellow-circle" fill-rule="evenodd" class="s5" d="m486.3 384.3c0 55.9-45.4 101.3-101.3 101.3-55.9 0-101.3-45.4-101.3-101.3 0-56 45.4-101.3 101.3-101.3 55.9 0 101.3 45.3 101.3 101.3z"/>
		</g>
		<path id="radarr-outer-ring" fill-rule="evenodd" class="s5" d="m532 29.2c46.5 19.3 88.9 47.6 124.5 83.3 35.7 35.6 64 78 83.3 124.6 19.3 46.5 29.2 96.5 29.2 146.9 0 50.4-9.9 100.4-29.2 147-19.3 46.5-47.6 88.9-83.3 124.5-35.6 35.7-78 64-124.5 83.3-46.6 19.3-96.6 29.2-147 29.2-50.4 0-100.4-9.9-147-29.2-46.5-19.3-88.9-47.6-124.5-83.3-35.7-35.6-64-78-83.3-124.5-19.3-46.6-29.2-96.6-29.2-147 0-50.4 9.9-100.4 29.2-146.9 19.3-46.6 47.6-89 83.3-124.6 35.6-35.7 78-64 124.5-83.3 46.6-19.3 96.6-29.2 147-29.2 50.4 0 100.4 9.9 147 29.2zm-288.2 13.9c-44.8 18.5-85.5 45.7-119.7 80-34.3 34.2-61.5 74.9-80 119.7-18.6 44.8-28.1 92.7-28.1 141.2 0 48.5 9.5 96.4 28.1 141.2 18.5 44.8 45.7 85.5 80 119.7 34.2 34.3 74.9 61.5 119.7 80 44.8 18.6 92.7 28.1 141.2 28.1 48.5 0 96.4-9.5 141.2-28.1 44.8-18.5 85.5-45.7 119.7-80 34.3-34.2 61.5-74.9 80-119.7 18.6-44.8 28.1-92.7 28.1-141.2 0-48.5-9.5-96.4-28.1-141.2-18.5-44.8-45.7-85.5-80-119.7-34.2-34.3-74.9-61.5-119.7-80-44.8-18.6-92.7-28.1-141.2-28.1-48.5 0-96.4 9.5-141.2 28.1z"/>
	</g>
</svg>
