<svg version="1.2" xmlns="http://www.w3.org/2000/svg" viewBox="0 0 770 770" width="770" height="770">
	<title>Radarr (1)-svg</title>
	<style>
		.s0 { fill: #f0f0f0 } 
		.s1 { fill: #e66001 } 
		.s2 { fill: #000000 } 
		.s3 { fill: none } 
	</style>
	<g id="66fc9b9e-3962-47b9-b3ad-be001ecb2777">
		<g id="caecedb3-9184-414d-8329-9e3ba7c7dfe9">
			<g id="a83994c9-5a8e-43c2-9b75-ad1ec357cca0">
				<path id="Layer" class="s0" d="m385 764.2c-209.7 0-379.2-169.5-379.2-379.2 0-209.7 169.5-379.2 379.2-379.2 209.7 0 379.2 169.5 379.2 379.2 0 209.7-169.5 379.2-379.2 379.2z"/>
				<path id="Layer" fill-rule="evenodd" class="s1" d="m532.3 29.3c46.7 19.4 89.2 47.7 124.9 83.5 35.8 35.7 64.1 78.2 83.5 124.9 19.3 46.7 29.3 96.7 29.3 147.3 0 155.7-93.8 296.1-237.7 355.7-143.8 59.6-309.4 26.6-419.5-83.5-110.1-110.1-143.1-275.7-83.5-419.5 59.6-143.9 200-237.7 355.7-237.7 50.6 0 100.6 10 147.3 29.3zm-220.2-10.6c-24 4.7-47.4 11.8-70 21.2-22.6 9.4-44.3 20.9-64.6 34.6-20.3 13.6-39.2 29.2-56.5 46.5-70 70-109.3 165-109.3 264 0 99 39.3 194 109.3 264 70 70 165 109.3 264 109.3 99 0 194-39.3 264-109.3 52.2-52.2 87.8-118.8 102.2-191.2 14.4-72.4 7-147.5-21.3-215.7-28.2-68.2-76.1-126.5-137.5-167.5-61.4-41-133.6-62.9-207.4-62.9-24.5-0.1-48.9 2.3-72.9 7z"/>
				<path id="Layer" class="s2" d="m385 718.9c-184.6 0-333.9-149.3-333.9-333.9 0-184.6 149.3-333.9 333.9-333.9 184.6 0 333.9 149.3 333.9 333.9 0 184.6-149.3 333.9-333.9 333.9z"/>
				<path id="Layer" class="s1" d="m285.7 331.4v114.6l99.3 57.3 99.3-57.3v-114.6l-99.3-57.3-99.3 57.3z"/>
				<path id="Layer" class="s0" d="m532.4 168.9v52.1l45.1 26 45.1-26v-52.1l-45.1-26.1-45.1 26.1z"/>
				<path id="Layer" class="s0" d="m144.4 168.9v52.1l45.1 26 45.1-26v-52.1l-45.1-26.1-45.1 26.1z"/>
				<path id="Layer" class="s0" d="m144.4 547.3v52.1l45.1 26 45.1-26v-52.1l-45.1-26.1-45.1 26.1z"/>
				<path id="Layer" class="s0" d="m532.4 547.3v52.1l45.1 26 45.1-26v-52.1l-45.1-26.1-45.1 26.1z"/>
				<path id="Layer" fill-rule="evenodd" class="s3" d="m651.7 306.2c7.4 25.3 11.1 51.5 11.1 77.8 0 26.4-3.7 52.6-11.1 77.9-7.4 25.3-18.4 49.3-32.6 71.5l-41.4-23.9-37.5 21.7-64.9-64.9-11.3 6.6 64.8 64.8-5.4 3.2v62.7l17.5 10.1c-22.8 15.6-47.9 27.7-74.3 35.9-26.4 8.1-53.9 12.3-81.6 12.3-27.7 0-55.2-4.2-81.6-12.3-26.4-8.2-51.5-20.3-74.3-35.9l17.5-10.1v-62.7l-6-3.5 64.9-64.8-11.4-6.6-64.9 64.8-36.9-21.3-41.4 23.9c-14.2-22.2-25.2-46.3-32.6-71.5-7.4-25.3-11.1-51.5-11.1-77.9 0-26.3 3.7-52.5 11.1-77.8 7.4-25.3 18.4-49.4 32.6-71.5l41.4 23.9 36.4-21 70.5 70.5 11.4-6.6-70.6-70.5 6.6-3.8v-62.7l-17.5-10.2c22.8-15.6 47.9-27.6 74.3-35.8 26.4-8.1 53.9-12.3 81.6-12.3 27.7 0 55.2 4.2 81.6 12.3 26.4 8.2 51.5 20.2 74.3 35.8l-17.5 10.2v62.7l6 3.5-70.5 70.5 11.3 6.6 70.6-70.6 36.9 21.4 41.4-23.9c14.2 22.2 25.2 46.2 32.6 71.5zm-259.2 78.3l-9-9.1-9 9.1 9 9z"/>
				<path id="Layer" class="s1" d="m663.2 384c0.1 13.3-0.9 26.5-2.8 39.6-1.8 13-4.6 26-8.3 38.7-3.8 12.7-8.4 25.1-13.9 37.1-5.4 12-11.8 23.7-18.9 34.8l7.8 4.5c14.6-23 26-47.9 33.6-74.1 7.7-26.2 11.6-53.3 11.6-80.6 0-27.2-3.9-54.4-11.6-80.5-7.6-26.2-19-51.2-33.6-74.1l-7.8 4.5c7.1 11.1 13.4 22.7 18.9 34.8 5.5 12 10.1 24.4 13.8 37.1 3.8 12.7 6.6 25.6 8.4 38.7 1.9 13.1 2.9 26.3 2.8 39.5z"/>
				<path id="Layer" class="s1" d="m383.9 104.7c13.9 0 27.8 1.1 41.5 3.1 13.7 2.1 27.3 5.2 40.6 9.3 13.2 4.1 26.2 9.1 38.7 15.2 12.5 6 24.5 13 36 20.8l8.6-5c-24-16.9-50.6-30.1-78.6-39-28.1-8.9-57.3-13.4-86.8-13.4-29.4 0-58.7 4.5-86.7 13.4-28.1 8.9-54.6 22.1-78.7 39l8.7 5c11.5-7.8 23.5-14.8 36-20.8 12.5-6 25.4-11.1 38.7-15.2 13.3-4.1 26.8-7.2 40.6-9.3 13.7-2 27.6-3.1 41.4-3.1z"/>
				<path id="Layer" class="s1" d="m104.6 384c0-13.2 1-26.4 2.8-39.5 1.9-13.1 4.7-26 8.4-38.7 3.7-12.7 8.3-25.1 13.8-37.1 5.5-12.1 11.9-23.7 19-34.8l-7.8-4.5c-14.7 22.9-26 47.9-33.7 74.1-7.6 26.1-11.5 53.3-11.5 80.5 0 27.3 3.9 54.4 11.5 80.6 7.7 26.2 19 51.1 33.7 74.1l7.8-4.5c-7.1-11.1-13.5-22.8-19-34.8-5.4-12-10.1-24.4-13.8-37.1-3.7-12.7-6.5-25.7-8.4-38.7-1.8-13.1-2.8-26.3-2.8-39.6z"/>
				<path id="Layer" class="s1" d="m383.9 663.3c-13.8 0-27.7-1-41.4-3.1-13.8-2-27.3-5.1-40.6-9.2-13.3-4.1-26.2-9.2-38.7-15.2-12.5-6-24.5-13-36-20.8l-8.7 5c24.1 16.9 50.6 30.1 78.7 38.9 28 8.9 57.3 13.5 86.7 13.5 29.5 0 58.7-4.6 86.8-13.5 28-8.8 54.6-22 78.6-38.9l-8.6-5c-11.5 7.8-23.5 14.8-36 20.8-12.5 6-25.5 11.1-38.7 15.2-13.3 4.1-26.9 7.2-40.6 9.2-13.7 2.1-27.6 3.1-41.5 3.1z"/>
				<path id="Layer" class="s1" d="m309.1 301.1l-70.9-70.9-11.4 6.6 70.9 70.9 11.4-6.6z"/>
				<path id="Layer" class="s1" d="m463.3 473.3l65.2 65.2 11.4-6.6-65.1-65.2-11.5 6.6z"/>
				<path id="Layer" class="s1" d="m292.5 466.4l-65.1 65.2 11.4 6.6 65.2-65.2-11.5-6.6z"/>
				<path id="Layer" class="s1" d="m469.6 307.4l70.9-70.9-11.4-6.6-70.9 70.9 11.4 6.6z"/>
				<path id="Layer" class="s1" d="m374.5 384.5l9-9 9 9-9 9z"/>
			</g>
		</g>
	</g>
</svg>
